<svg xmlns="http://www.w3.org/2000/svg" width="210" height="304" stroke="#000" stroke-linecap="round" stroke-linejoin="round" fill="#fff" fill-rule="evenodd">
  <g stroke="none" class="B">
    <path d="M 142 31.5 v 57.2 l 64.3 165.1 s 19.6 40.3 -36.5 50.1 h -128 s -52.3 -5.5 -39.8 -46.9 L 69.5 88.7 V 31.5 z" fill="#009688"/>
    <path d="M 143.3 24.8 H 66.2 c -6.2 0 -11.3 -5.6 -11.3 -12.4 S 60 0 66.2 0 h 77.1 c 6.3 0 11.3 5.6 11.3 12.4 s -5.1 12.4 -11.3 12.4 z" class="C" fill="#004d40"/>
    <path d="M 123 124.9 c 8.3 0 15 8.1 15 18.1 c 0 10 -6.8 18.1 -15 18.1 c -8.3 0 -15 -8.1 -15 -18.1 c 0 -10 6.7 -18.1 15 -18.1 z m -58.8 31.7 c 0 -8.5 5.6 -15.3 12.7 -15.3 s 12.7 6.8 12.7 15.3 s -5.6 15.3 -12.7 15.3 s -12.7 -6.8 -12.7 -15.3 z" fill="white"/>
    <path d="M 147.7 84.9 V 57.7 s 34.5 -7.6 51.7 32.5 c 0 0 -26.9 19.6 -51.7 -5.3 z m -84.5 0 V 57.7 s -34.5 -7.6 -51.7 32.5 c 0 0 26.8 19.6 51.7 -5.3 z" class="C" fill="#004d40"/>
    <path d="M 168.4 197.5 c -56.1 -17.4 -103.3 -8.1 -126.3 -1 l -23.2 56 c -10.5 33.4 33.2 37.8 33.2 37.8 h 106.9 c 46.9 -7.9 30.5 -40.4 30.5 -40.4 z" fill="white"/>
    <path d="M 87.6 218.3 c 0 6 -8.1 10.9 -18.1 10.9 s -18.1 -4.9 -18.1 -10.9 c 0 -6.1 8.1 -10.9 18.1 -10.9 s 18.1 4.9 18.1 10.9 z m 64.4 0 c 0 6 -8.1 10.9 -18.1 10.9 c -10 0 -18.1 -4.9 -18.1 -10.9 c 0 -6.1 8.1 -10.9 18.1 -10.9 c 10 0 18.1 4.9 18.1 10.9 z" class="C" fill="#004d40"/>
  </g>
</svg>