<svg xmlns="http://www.w3.org/2000/svg" xmlns:xlink="http://www.w3.org/1999/xlink" width="194.667" height="196" xmlns:v="https://vecta.io/nano"><style><![CDATA[.B{fill:none}.C{stroke:#2196f3}.D{stroke-miterlimit:10}.E{fill:#2196f3}]]></style><defs><clipPath id="A"><path d="M5.5 74.048C5.5 36.98 35.551 6.93 72.619 6.93h0c37.069 0 67.119 30.05 67.119 67.118h0c0 37.07-30.05 67.12-67.119 67.12h0c-37.068 0-67.119-30.05-67.119-67.12"/></clipPath><clipPath id="B"><path d="M0 147h146V0H0z"/></clipPath><clipPath id="C"><path d="M88.756 55.055h50.982l4.512 88.195-64 1.25z"/></clipPath><path id="D" d="M119.64 109.307c-1.542-1.541-3.386-2.311-5.533-2.311s-3.991.77-5.532 2.311-2.313 3.387-2.313 5.533a7.28 7.28 0 0 0 2.313 5.45c1.541 1.486 3.384 2.23 5.532 2.23a7.69 7.69 0 0 0 5.533-2.23c1.54-1.487 2.312-3.303 2.312-5.45s-.772-3.992-2.312-5.533m12.551 23.039c-4.954 4.9-10.954 7.35-18.001 7.35s-13.047-2.45-18.002-7.35-7.432-10.817-7.432-17.754c0-4.183 2.119-11.176 6.359-20.974s8.477-18.717 12.715-26.754l6.36-11.727 2.724 4.955c1.157 2.092 3.194 6.029 6.112 11.809s5.477 11.094 7.678 15.935c2.203 4.846 4.24 9.856 6.111 15.032s2.807 9.082 2.807 11.724c0 6.937-2.477 12.856-7.431 17.754"/></defs><g transform="matrix(1.333333 0 0 -1.333333 0 196)"><g clip-path="url(#A)"><path d="M13.926 109.38c-.766-5.554 1.148-8.427 0-11.107s-2.49-7.469-1.341-10.724 2.872-10.34 4.404-10.533-1.148 7.66.383 5.171 1.533-6.193 4.214-8.746 6.319-2.17 9.192-4.658 5.744-6.129 8.425-5.746c0 0-.192-1.914-1.532-5.17s-1.532-7.084.192-9.383 3.446-5.746 4.979-7.469 2.681-10.915 2.297-15.51 1.724-14.937 6.511-17.236 0 1.15-.957 4.022.739 9.575 3.052 10.533 4.416 4.787 6.139 7.469 6.128 3.83 7.469 7.084.766 7.085 1.532 8.809 2.873 5.554-1.724 7.852-6.51 1.148-6.702 3.255-1.341 4.404-4.595 5.361-6.129 2.816-9.768 3.227-4.404-2.461-6.319-.928-3.446 3.064-4.213 4.978-3.064.766-2.871 1.915 3.254 4.404-.193 3.255-6.51-.765-6.319 2.298 4.405 4.214 6.129 4.597 3.063-1.723 5.17-3.065.191 1.915 1.34 4.214 5.554 2.106 6.128 5.361-.191 5.937 3.256 6.32 7.084-.191 7.468 1.533-4.022-.576-4.213 1.531 3.829 4.978 4.978 2.872 4.022-2.298 4.405-1.531 0 2.105-1.341 5.361-2.681 2.298-3.829 5.936-3.064-.191-4.979 1.724-4.213 5.937-4.597 2.489-.382-5.361-2.105-8.042-2.489-.575-4.022 1.149-4.979 3.447-3.83 4.978 2.298 5.554 4.021 4.404 4.405-1.149 4.022.767 0 2.681.766 3.638 3.447 2.682 3.447-.766-.384-4.405 2.298-4.788 5.744-.574 5.554 1.149.766 1.341 0 4.214-3.065 3.063-5.554 4.405-3.83 3.446-5.936 2.68-2.299-1.531-2.49-3.638-1.341-2.873-2.107-1.915.192 4.022-2.68 2.106-4.021-5.171-5.553-2.872 2.297 6.319-1.724 4.595-6.895-3.637-4.788-4.404 4.214-2.107 2.107-2.873-6.32.575-7.852-.957-5.744-9.191-5.744-9.191" class="E"/><path d="M13.926 109.38c-.766-5.554 1.148-8.427 0-11.107s-2.49-7.469-1.341-10.724 2.872-10.34 4.404-10.533-1.148 7.66.383 5.171 1.533-6.193 4.214-8.746 6.319-2.17 9.192-4.658 5.744-6.129 8.425-5.746c0 0-.192-1.914-1.532-5.17s-1.532-7.084.192-9.383 3.446-5.746 4.979-7.469 2.681-10.915 2.297-15.51 1.724-14.937 6.511-17.236 0 1.15-.957 4.022.739 9.575 3.052 10.533 4.416 4.787 6.139 7.469 6.128 3.83 7.469 7.084.766 7.085 1.532 8.809 2.873 5.554-1.724 7.852-6.51 1.148-6.702 3.255-1.341 4.404-4.595 5.361-6.129 2.816-9.768 3.227-4.404-2.461-6.319-.928-3.446 3.064-4.213 4.978-3.064.766-2.871 1.915 3.254 4.404-.193 3.255-6.51-.765-6.319 2.298 4.405 4.214 6.129 4.597 3.063-1.723 5.17-3.065.191 1.915 1.34 4.214 5.554 2.106 6.128 5.361-.191 5.937 3.256 6.32 7.084-.191 7.468 1.533-4.022-.576-4.213 1.531 3.829 4.978 4.978 2.872 4.022-2.298 4.405-1.531 0 2.105-1.341 5.361-2.681 2.298-3.829 5.936-3.064-.191-4.979 1.724-4.213 5.937-4.597 2.489-.382-5.361-2.105-8.042-2.489-.575-4.022 1.149-4.979 3.447-3.83 4.978 2.298 5.554 4.021 4.404 4.405-1.149 4.022.767 0 2.681.766 3.638 3.447 2.682 3.447-.766-.384-4.405 2.298-4.788 5.744-.574 5.554 1.149.766 1.341 0 4.214-3.065 3.063-5.554 4.405-3.83 3.446-5.936 2.68-2.299-1.531-2.49-3.638-1.341-2.873-2.107-1.915.192 4.022-2.68 2.106-4.021-5.171-5.553-2.872 2.297 6.319-1.724 4.595-6.895-3.637-4.788-4.404 4.214-2.107 2.107-2.873-6.32.575-7.852-.957-5.744-9.191-5.744-9.191z" class="B C D"/><path d="M36.522 130.061c-.01-2.141.575-3.829 2.49-1.915s3.063 4.213 4.405 3.256 3.638-.703 4.594-.639 1.15 2.937 3.831 2.554 1.724.574 4.596 2.107 9.001 4.212 2.681 3.446-6.703.958-11.108-1.914-5.36-2.873-6.509-3.639-2.49 2.298-4.022 0-.947-1.074-.958-3.256" class="E"/><path d="M36.522 130.061c-.01-2.141.575-3.829 2.49-1.915s3.063 4.213 4.405 3.256 3.638-.703 4.594-.639 1.15 2.937 3.831 2.554 1.724.574 4.596 2.107 9.001 4.212 2.681 3.446-6.703.958-11.108-1.914-5.36-2.873-6.509-3.639-2.49 2.298-4.022 0-.947-1.074-.958-3.256z" class="B C D"/><path d="M59.502 135.998c-2.263-1.956-5.744-4.788-3.064-4.788s3.983 1.404 5.439-.447.88-4.723.88-6.063-.766-4.406 1.15-8.235 2.106-6.319 4.022-3.829 6.51 7.276 8.808 7.658 4.597 1.342 5.746 3.257 0 3.773 1.914 5.141 1.531 3.093 2.107 5.199 5.745 2.107 3.446 3.255-6.51 1.916-11.49 1.341-14.745 1.149-18.958-2.489" class="E"/><path d="M59.502 135.998c-2.263-1.956-5.744-4.788-3.064-4.788s3.983 1.404 5.439-.447.88-4.723.88-6.063-.766-4.406 1.15-8.235 2.106-6.319 4.022-3.829 6.51 7.276 8.808 7.658 4.597 1.342 5.746 3.257 0 3.773 1.914 5.141 1.531 3.093 2.107 5.199 5.745 2.107 3.446 3.255-6.51 1.916-11.49 1.341-14.745 1.149-18.958-2.489z" class="B C D"/><path d="M38.438 76.826c-1.218-1.986-.575-2.107.766-2.49s-.575-2.68.957-2.872 4.979-1.15 5.936 0-1.531.7-3.255 1.977-3.539 4.795-4.404 3.385" class="E"/><path d="M38.438 76.826c-1.218-1.986-.575-2.107.766-2.49s-.575-2.68.957-2.872 4.979-1.15 5.936 0-1.531.7-3.255 1.977-3.539 4.795-4.404 3.385z" class="B C D"/><path d="M131.121 45.612c-2.063-1.033-1.148-2.682-3.064-3.831s-1.149-1.531-1.723-4.213.191-4.212 1.532-2.106 5.553 11.298 3.255 10.15" class="E"/><path d="M131.121 45.612c-2.063-1.033-1.148-2.682-3.064-3.831s-1.149-1.531-1.723-4.213.191-4.212 1.532-2.106 5.553 11.298 3.255 10.15z" class="B C D"/><path d="M132.845 86.592c-.575-.575-1.532 2.681-2.106 4.213s-.561 4.195 1.056 5.675c2.014 1.846 1.05-2.419 1.05-4.718s.574-4.595 0-5.17m-6.704 5.936c-1.341.766-3.828 0-6.892-.957s-.613 2.131.766 4.213c1.233 1.861.574-.574 3.256-.766s4.213-3.256 2.87-2.49m-4.402-6.511c-.192-1.531.574-4.021-3.639-3.064s-4.213 3.256-5.936 1.533-3.83-3.255-6.32-.575-2.106 3.447-3.446 3.639c-.955.135-4.138.846-6.792.074.206.123.426.285.663.5 1.915 1.723 1.532 2.298 3.638 4.213s3.639 3.638 5.171 1.916 4.788-2.108 3.639-4.023-.383-3.063.958-1.914 3.255 1.914 1.915 3.446-2.682 5.554-.766 2.873l3.637-5.553c1.15-1.532 2.299-2.49 2.682-1.532s-.192 3.063.383 3.446 0-3.255 1.723-3.446 2.681 0 2.49-1.533m20.298-8.235c-.574 3.257-4.787 32.747-4.787 32.747s-11.299 7.277-13.213 5.746-5.171-1.302-4.788.21 2.872 1.128-1.341 4.002-4.978 5.362-8.233 1.724-4.022-6.703-5.937-7.661-3.447-4.021-1.34-4.787 2.298 0 4.02-1.531 4.023-1.149 4.406-.193.766 4.022.957 5.171 2.138 4.979 1.93 1.915 2.665-3.064.75-5.17-.765-3.831-4.595-4.214-4.022 1.915-6.128.766-1.915-1.915-2.681-3.063-4.788-3.447-4.788-3.447-3.255 1.149-1.724-.958 2.873-4.595 1.533-4.786-4.98 1.914-4.98-.384-.573-4.787.959-5.362c1.081-.405 1.783-1.284 2.775-1.161-.769-.332-1.468-.813-2.009-1.52-1.491-1.947-.575-5.362-3.639-6.511s-3.063-2.489-3.639-4.979 0-8.808.766-9.383 2.107-5.362 5.363-4.978 6.702.53 7.851-.023 3.063 1.171 3.638-3.233 1.915-4.979 2.681-7.277-.383-7.086 0-9.958 3.064-7.852 3.064-10.341 2.873-3.638 4.405-2.681 4.787 2.873 6.127 5.937 1.342 4.595 3.447 8.617 1.533 6.894 2.489 9.958 3.262 5.171 6.419 8.617 2.588 5.362 0 5.171-4.314 2.297-5.654 5.361-2.87 10.724-1.721 8.235 3.446-9.384 5.744-10.533 6.512 1.953 7.469 3.083.574 4.385-1.916 5.726-.957 2.489 1.533.958 5.362-3.064 4.787.19" class="E"/><path d="M132.845 86.592c-.575-.575-1.532 2.681-2.106 4.213s-.561 4.195 1.056 5.675c2.014 1.846 1.05-2.419 1.05-4.718s.574-4.595 0-5.17zm-6.704 5.936c-1.341.766-3.828 0-6.892-.957s-.613 2.131.766 4.213c1.233 1.861.574-.574 3.256-.766s4.213-3.256 2.87-2.49zm-4.402-6.511c-.192-1.531.574-4.021-3.639-3.064s-4.213 3.256-5.936 1.533-3.83-3.255-6.32-.575-2.106 3.447-3.446 3.639c-.955.135-4.138.846-6.792.074.206.123.426.285.663.5 1.915 1.723 1.532 2.298 3.638 4.213s3.639 3.638 5.171 1.916 4.788-2.108 3.639-4.023-.383-3.063.958-1.914 3.255 1.914 1.915 3.446-2.682 5.554-.766 2.873l3.637-5.553c1.15-1.532 2.299-2.49 2.682-1.532s-.192 3.063.383 3.446 0-3.255 1.723-3.446 2.681 0 2.49-1.533zm20.298-8.235c-.574 3.257-4.787 32.747-4.787 32.747s-11.299 7.277-13.213 5.746-5.171-1.302-4.788.21 2.872 1.128-1.341 4.002-4.978 5.362-8.233 1.724-4.022-6.703-5.937-7.661-3.447-4.021-1.34-4.787 2.298 0 4.02-1.531 4.023-1.149 4.406-.193.766 4.022.957 5.171 2.138 4.979 1.93 1.915 2.665-3.064.75-5.17-.765-3.831-4.595-4.214-4.022 1.915-6.128.766-1.915-1.915-2.681-3.063-4.788-3.447-4.788-3.447-3.255 1.149-1.724-.958 2.873-4.595 1.533-4.786-4.98 1.914-4.98-.384-.573-4.787.959-5.362c1.081-.405 1.783-1.284 2.775-1.161-.769-.332-1.468-.813-2.009-1.52-1.491-1.947-.575-5.362-3.639-6.511s-3.063-2.489-3.639-4.979 0-8.808.766-9.383 2.107-5.362 5.363-4.978 6.702.53 7.851-.023 3.063 1.171 3.638-3.233 1.915-4.979 2.681-7.277-.383-7.086 0-9.958 3.064-7.852 3.064-10.341 2.873-3.638 4.405-2.681 4.787 2.873 6.127 5.937 1.342 4.595 3.447 8.617 1.533 6.894 2.489 9.958 3.262 5.171 6.419 8.617 2.588 5.362 0 5.171-4.314 2.297-5.654 5.361-2.87 10.724-1.721 8.235 3.446-9.384 5.744-10.533 6.512 1.953 7.469 3.083.574 4.385-1.916 5.726-.957 2.489 1.533.958 5.362-3.064 4.787.19z" class="B C D"/><path d="M95.886 109.955c-1.173-.353-2.106-2.681-1.532-3.831s-.574.576-2.106-.382-3.808-3.639-1.713-3.829 1.713 1.531 3.628.765 4.021-.575 4.021 1.34-.383 6.511-2.298 5.937" class="E"/><path d="M95.886 109.955c-1.173-.353-2.106-2.681-1.532-3.831s-.574.576-2.106-.382-3.808-3.639-1.713-3.829 1.713 1.531 3.628.765 4.021-.575 4.021 1.34-.383 6.511-2.298 5.937z" class="B C D"/><path d="M83.44 118.763c-1.154-.165-1.533-3.064.957-3.447s6.947.575 5.293 2.107-3.568 1.723-6.25 1.34" class="E"/><path d="M83.44 118.763c-1.154-.165-1.533-3.064.957-3.447s6.947.575 5.293 2.107-3.568 1.723-6.25 1.34z" class="B C D"/></g><g clip-path="url(#B)" class="B C D"><path d="M139.738 74.049c0-37.068-30.05-67.119-67.119-67.119S5.5 36.981 5.5 74.049s30.05 67.119 67.119 67.119 67.119-30.05 67.119-67.119z"/><path d="M139.438 73.186c0-36.731-29.777-66.509-66.509-66.509S6.419 36.455 6.419 73.186s29.778 66.51 66.51 66.51 66.509-29.777 66.509-66.51z" stroke-width="8"/></g><g clip-path="url(#C)"><g fill="#fff"><use xlink:href="#D"/><use xlink:href="#D"/></g><path d="M119.64 109.307c-1.542-1.541-3.386-2.311-5.533-2.311s-3.991.77-5.532 2.311-2.313 3.387-2.313 5.533a7.28 7.28 0 0 0 2.313 5.45c1.541 1.486 3.384 2.23 5.532 2.23a7.69 7.69 0 0 0 5.533-2.23c1.54-1.487 2.312-3.303 2.312-5.45s-.772-3.992-2.312-5.533zm12.551 23.039c-4.954 4.9-10.954 7.35-18.001 7.35s-13.047-2.45-18.002-7.35-7.432-10.817-7.432-17.754c0-4.183 2.119-11.176 6.359-20.974s8.477-18.717 12.715-26.754l6.36-11.727 2.724 4.955c1.157 2.092 3.194 6.029 6.112 11.809s5.477 11.094 7.678 15.935c2.203 4.846 4.24 9.856 6.111 15.032s2.807 9.082 2.807 11.724c0 6.937-2.477 12.856-7.431 17.754z" stroke-width="5" class="B C D"/></g></g></svg>